<svg xmlns="http://www.w3.org/2000/svg" width="31" height="29" fill="none"><g clip-path="url(#a)"><path fill="#004583" d="M28.691.774a48 48 0 0 0-3.668 2.432 81 81 0 0 0-1.881 1.464 85 85 0 0 0-2.21 1.898 78 78 0 0 0-2.823 2.68c-.875.884-2.05 2.1-2.596 2.708s-1.43 1.649-1.975 2.303a129 129 0 0 0-1.289 1.611c-.179.23-.687.922-1.129 1.539a49 49 0 0 0-1.523 2.229l-.706 1.114c-.357-.746-.724-1.501-1.044-2.164-.33-.664-.818-1.53-1.091-1.925-.273-.406-.715-.921-.969-1.152-.292-.258-.64-.47-.894-.543-.32-.092-.555-.092-.94-.019-.282.046-.856.258-1.27.452-.452.22-1.072.635-1.552 1.04-.442.378-.809.737-.828.811-.01.083.188.24.518.415.3.147.846.552 1.213.92.367.35.856.94 1.091 1.29.226.35.602.976.818 1.382.217.405.715 1.446 1.1 2.302a76 76 0 0 1 1.12 2.58c.217.561.47 1.233.555 1.5.085.258.198.498.245.526.047.027.376-.176.733-.443.349-.267.988-.736 1.43-1.04a75 75 0 0 1 1.496-1.004c.687-.46.687-.46 1.298-1.658.338-.663.94-1.76 1.345-2.441.404-.682.997-1.658 1.317-2.165.33-.506.931-1.418 1.345-2.026s1.26-1.787 1.881-2.625a102 102 0 0 1 2.314-2.993 83 83 0 0 1 1.938-2.349 155 155 0 0 1 1.796-2.026c.574-.636 1.825-1.898 2.775-2.81.95-.92 2.164-2.007 2.69-2.422l.97-.755c-.565-.857-.744-1.105-.763-1.105-.018 0-.395.212-.837.47"/></g><defs><clipPath id="a"><path fill="#fff" d="M.19.305h30.1v28H.19z"/></clipPath></defs></svg>