<svg width="49" height="53" viewBox="0 0 49 53" fill="none" xmlns="http://www.w3.org/2000/svg">
<path d="M6.73917 0.149499C6.41226 0.228558 5.87731 0.436085 5.5504 0.613965C5.22349 0.781964 4.68855 1.19702 4.35173 1.52313C4.01491 1.84925 3.63846 2.34336 3.49977 2.61018C3.36108 2.88689 3.17286 3.35135 3.0837 3.64782C2.99454 3.94429 2.9252 4.49769 2.9252 4.8831C2.9252 5.26851 2.99454 5.8318 3.0738 6.14803C3.15305 6.45438 3.33136 6.91885 3.46015 7.18567C3.58893 7.44261 3.87622 7.84778 4.08425 8.09484C4.30219 8.34189 4.98573 9.18189 5.60984 9.97247C6.22404 10.763 7.60104 12.5616 8.66102 13.9748C9.72101 15.3879 10.8305 16.8802 11.1277 17.2853C11.4249 17.6905 11.841 18.2538 12.0391 18.5206C12.2372 18.7973 12.8019 19.5484 13.2873 20.2006C13.7727 20.8528 14.2383 21.4853 14.3176 21.6039C14.3968 21.7225 14.8426 22.2956 15.3082 22.8787C15.7738 23.4716 16.18 24.0053 16.2295 24.0745C16.2692 24.1535 16.1206 24.4401 15.8333 24.8255C15.5757 25.1615 15.1398 25.7446 14.8624 26.13C14.5752 26.5154 13.9312 27.4245 13.4359 28.1558C12.9307 28.8871 12.4156 29.6481 12.2868 29.8358C12.1679 30.0236 11.7716 30.6264 11.4249 31.1699C11.0782 31.7134 10.3253 32.9388 9.76064 33.8875C9.19597 34.8362 8.1558 36.6645 7.45244 37.9393C6.75899 39.2141 5.21358 42.2183 4.02481 44.6098C2.83604 47.0013 1.72652 49.2446 1.55811 49.6003C1.3897 49.9561 0.94391 50.9147 0.55756 51.725C-0.0764517 53.0591 -0.116074 53.1678 0.171213 52.8516C0.349528 52.6638 1.34017 51.4879 2.38035 50.2328C3.41061 48.9876 5.14424 46.942 6.23395 45.6968C7.32366 44.4517 8.45299 43.1571 8.76009 42.831C9.06719 42.5049 9.78045 41.7242 10.355 41.1016C10.9296 40.479 11.7716 39.5698 12.2372 39.0757C12.7028 38.5816 14.0402 37.2277 15.2092 36.0616C16.3781 34.8857 17.9632 33.3539 18.726 32.6523C19.4887 31.9506 20.1327 31.3478 20.1624 31.3182C20.1921 31.2885 20.5586 30.9624 20.9846 30.5968C21.4998 30.1521 21.7969 29.9544 21.8861 30.0137C21.9654 30.0532 22.8668 30.7944 23.8971 31.6739C24.9175 32.5436 26.1657 33.5911 26.6511 33.9962C27.1464 34.4014 27.9687 35.0635 28.4838 35.4786C28.9989 35.8838 29.7617 36.4866 30.1679 36.8127C30.574 37.1388 31.9609 38.1863 33.2389 39.135C34.5168 40.0837 36.3396 41.4178 37.2807 42.0997C38.2218 42.7717 39.0936 43.3943 39.2125 43.4733C39.3412 43.5524 39.7474 43.839 40.1337 44.1058C40.5102 44.3726 41.7287 45.2423 42.8481 46.0328C43.9675 46.8234 45.5129 47.95 46.2956 48.5331C47.0683 49.126 47.7023 49.5806 47.7023 49.5509C47.7023 49.5213 47.4051 49.1161 47.0385 48.6418C46.6819 48.1575 45.3941 46.5961 44.1954 45.1731C42.9868 43.7402 41.372 41.8032 40.5894 40.8743C39.8167 39.9355 38.8756 38.8188 38.5091 38.384C38.1425 37.9492 37.5284 37.2179 37.1519 36.7534C36.7755 36.279 36.3 35.7059 36.1117 35.4588C35.9235 35.2216 35.6461 34.9054 35.4975 34.7572C35.339 34.5991 35.24 34.4805 35.2697 34.4805C35.2994 34.4805 35.022 34.1148 34.6654 33.6701C34.3088 33.2155 33.8828 32.6918 33.7342 32.504C33.5757 32.3163 33.1299 31.7332 32.7336 31.2193C32.3374 30.7055 31.9015 30.1224 31.7529 29.9346C31.6043 29.7469 31.2279 29.233 30.901 28.7982C30.584 28.3634 30.1877 27.8198 30.0193 27.5827C29.8509 27.3554 29.5537 26.9304 29.3456 26.6438C29.1376 26.3573 28.7513 25.8039 28.4838 25.4184C28.2064 25.0232 27.9984 24.6872 28.0182 24.6674C28.0281 24.6575 28.2658 24.4401 28.5333 24.2029C28.8107 23.9559 29.3159 23.5112 29.6627 23.2147C30.0193 22.9182 30.3462 22.6218 30.4056 22.5724C30.4651 22.5131 31.1189 21.9794 31.852 21.3766C32.585 20.7738 33.6549 19.9338 34.2295 19.499C34.8041 19.0543 35.6957 18.4119 36.2108 18.0562C36.7259 17.7004 37.7265 17.0482 38.4397 16.6232C39.153 16.1884 40.4904 15.4275 41.4117 14.9334C42.333 14.4393 43.7892 13.708 44.6313 13.3127C45.4733 12.9075 46.3946 12.4529 46.6621 12.2948C46.9395 12.1367 47.306 11.8699 47.4942 11.7019C47.6824 11.5437 48.0094 11.1386 48.2174 10.8125C48.4353 10.4863 48.6929 9.93294 48.8019 9.57718C48.9307 9.15224 49 8.66801 49 8.14425C49 7.63037 48.9207 7.12638 48.792 6.71132C48.683 6.35556 48.4849 5.89109 48.3462 5.67368C48.2075 5.45627 47.841 5.02146 47.5339 4.70522C47.1673 4.34946 46.7017 4.01346 46.2658 3.79605C45.8894 3.61817 45.3049 3.41065 44.978 3.35135C44.6511 3.28218 44.0072 3.25253 43.5416 3.28217C43.076 3.30194 42.4816 3.40076 42.2042 3.49959C41.9367 3.58853 41.2136 3.94429 40.6192 4.2704C40.0248 4.59652 38.9747 5.19933 38.2911 5.60451C37.6076 6.00968 36.2901 6.84967 35.3688 7.46237C34.4475 8.07507 33.437 8.74707 33.1398 8.9546C32.8426 9.16212 32.4365 9.44871 32.2482 9.58706C32.06 9.72541 31.3269 10.2591 30.6137 10.7729C29.9004 11.2769 28.8107 12.0972 28.1866 12.5715C27.5625 13.0557 26.8988 13.5696 26.7105 13.7178C26.5223 13.8562 25.7595 14.4788 25.0264 15.1014C24.2835 15.7239 23.4711 16.4256 23.2136 16.6628C22.9461 16.8901 22.6885 17.0877 22.639 17.0877C22.5895 17.0877 22.4211 16.9197 22.2725 16.7122C22.114 16.5046 21.3313 15.4472 20.519 14.3602C19.6968 13.283 18.2703 11.2374 17.3391 9.82423C16.3979 8.41107 15.0408 6.32591 14.3077 5.17957C13.5845 4.03323 12.7821 2.81771 12.5344 2.46195C12.2868 2.11607 11.8707 1.61207 11.5933 1.34525C11.3159 1.07843 10.7909 0.72267 10.4046 0.534907C10.0182 0.357026 9.44363 0.159382 9.11672 0.100088C8.78981 0.0407945 8.25486 -0.00861678 7.92795 0.00126548C7.60103 0.00126548 7.06609 0.0704413 6.73917 0.149499Z" fill="#FF1A00"/>
</svg>
